<svg xmlns="http://www.w3.org/2000/svg" width="100" height="100" viewBox="0 0 100 100"><path fill="#17193f" d="M17.58 20.21l32.34-3.59 32.6 3.59v58.15l-32.6 18.73-32.34-17.92V20.21z"/><path fill="#17193f" d="M49.92 99.22L16 79.32v-60.6l34-3.5 34 3.5v60.6zm-31-21.5l31 18.1 31-18.1v-56.3l-31-3.2-30.4 3.1-.5.5c-.1.1-.1 55.9-.1 55.9z"/><path fill="#f05a29" d="M49.02 12.95l11.69 23.69 26.14 3.8-18.91 18.44 4.46 26.04-23.38-12.29-23.39 12.29 4.47-26.04-18.92-18.44 26.14-3.8 11.7-23.69z"/><path fill="#121840" d="M73.07 85.84L49 73.19 25 85.84l4.59-26.78L10.1 40.09l26.9-3.9 12-24.37 12 24.37 26.89 3.9-19.46 19zm-60.82-45l18.38 17.87V59L26.3 84 49 72.06 71.74 84 67.4 58.71l18.38-17.92-25.4-3.69L49 14.08l-11.36 23z"/><circle cx="49.02" cy="13.18" r="2.68" fill="#ffbc64"/><path fill="#17193f" d="M49 16.36c-2.448-.015-3.961-2.675-2.724-4.787 1.237-2.112 4.297-2.093 5.508.034A3.181 3.181 0 0 1 49 16.36zM49 11c-1.678.015-2.71 1.842-1.858 3.287.853 1.446 2.95 1.427 3.776-.034A2.183 2.183 0 0 0 49 11z"/><circle cx="72.92" cy="84.92" r="2.68" fill="#ffbc64"/><path fill="#17193f" d="M72.92 88.1c-2.448 0-3.978-2.65-2.754-4.77 1.224-2.12 4.284-2.12 5.508 0a3.18 3.18 0 0 1-2.754 4.77zm0-5.36c-1.678 0-2.727 1.817-1.888 3.27s2.937 1.453 3.776 0a2.181 2.181 0 0 0-1.888-3.27z"/><circle cx="87.37" cy="40.44" r="2.68" fill="#ffbc64"/><path fill="#17193f" d="M87.37 43.62c-2.448 0-3.978-2.65-2.754-4.77 1.224-2.12 4.284-2.12 5.508 0a3.18 3.18 0 0 1-2.754 4.77zm0-5.36c-1.678 0-2.727 1.817-1.888 3.27s2.937 1.453 3.776 0a2.181 2.181 0 0 0-1.888-3.27z"/><circle cx="11.18" cy="40.44" r="2.68" fill="#ffbc64"/><path fill="#17193f" d="M11.18 43.62c-2.448 0-3.978-2.65-2.754-4.77 1.224-2.12 4.284-2.12 5.508 0a3.18 3.18 0 0 1-2.754 4.77zm0-5.36c-1.678 0-2.727 1.817-1.888 3.27s2.937 1.453 3.776 0a2.181 2.181 0 0 0-1.888-3.27z"/><circle cx="25.85" cy="84.92" r="2.68" fill="#ffbc64"/><path fill="#17193f" d="M25.85 88.1c-2.448.023-4.003-2.613-2.799-4.744 1.204-2.131 4.264-2.16 5.508-.052A3.18 3.18 0 0 1 25.85 88.1zm0-5.36c-1.678-.023-2.752 1.779-1.932 3.244.819 1.465 2.916 1.493 3.775.051.196-.328.302-.703.307-1.085a2.19 2.19 0 0 0-2.15-2.21z"/><path fill="#fc7651" d="M49.02 19.7v24.64l-10.06-5.68L49.02 19.7zM81.57 41.93l-32.4 7.83 9.17-11.23 23.23 3.4zM28.52 80.23l4.22-22.44 6.22-7.33 7.41 6.39-17.85 23.38z"/><path fill="#fc7651" d="M16.32 41.64l28.38-3.23-7.08 11.08-21.3-7.85z"/><circle cx="49.02" cy="52.96" r="13.14" fill="#17193f"/><path fill="#17193f" d="M49 66.59c-10.5-.008-17.054-11.379-11.797-20.469 5.256-9.089 18.381-9.079 23.625.018A13.64 13.64 0 0 1 62.65 53c-.033 7.515-6.135 13.59-13.65 13.59zm0-26.27c-9.73.008-15.803 10.546-10.931 18.969 4.871 8.423 17.034 8.413 21.893-.018A12.64 12.64 0 0 0 61.65 53C61.672 46 56 40.314 49 40.32z"/><circle cx="48.86" cy="53.16" r="11.3" fill="#fff"/><path fill="#17193f" d="M48.86 65c-9.091.008-14.782-9.829-10.243-17.706 4.539-7.878 15.903-7.887 20.456-.018a11.816 11.816 0 0 1 1.587 5.904c.006 6.522-5.278 11.814-11.8 11.82zm0-22.61c-8.322-.008-13.531 8.996-9.377 16.206 4.154 7.211 14.556 7.22 18.724.018a10.817 10.817 0 0 0 1.453-5.404c.028-5.974-4.796-10.838-10.77-10.86z"/><path fill="#17193f" d="M49.11 45.7l-6.1.64v11.18l6.1 3.63 6.1-3.63V46.34l-6-.63zm5.3 11.37l-5.3 3.15-5.31-3.15v-4.59l5.28 3.15v.57L45.47 54v.55l3.63 2.19v.58l-3.62-2.12v.55l3.64 2.19 3.67-2.2V53.38l1.64-1zm0-5.26l-1.41.86-.67.39-3.19-1.9v.55l2.72 1.63h-.06l-.39.23-2.25-1.35v.56l1.77 1.06-.42.28-1.34-.79v.55l.88.52-.9.54-5.25-3.12 5.26-3.16zm0-.55l-5.33-3.15-5.28 3.14v-4.19l5.31-.56 5.3.56z"/><path fill="#17193f" d="M28.9 80.69a.5.5 0 0 1-.29-.09.47.47 0 0 1-.2-.49L32.2 58 16.12 42.29a.51.51 0 0 1 .28-.86l22.23-3.23 9.94-20.14a.52.52 0 0 1 .89 0l10 20.14 22.23 3.23a.5.5 0 0 1 .4.34.528.528 0 0 1-.12.52L65.83 58l3.8 22.14a.5.5 0 0 1-.73.52L49 70.18 29.13 80.63a.462.462 0 0 1-.23.06zM17.54 42.28l15.55 15.15a.5.5 0 0 1 .14.45l-3.67 21.4 19.22-10.11a.552.552 0 0 1 .47 0l19.22 10.11-3.67-21.4a.5.5 0 0 1 .14-.45l15.55-15.15L59 39.15a.47.47 0 0 1-.37-.27L49 19.41l-9.59 19.47a.5.5 0 0 1-.38.27z"/></svg>